<?xml version="1.0" standalone="no"?>
<!DOCTYPE svg PUBLIC "-//W3C//DTD SVG 20010904//EN"
 "http://www.w3.org/TR/2001/REC-SVG-20010904/DTD/svg10.dtd">
<svg version="1.0" xmlns="http://www.w3.org/2000/svg"
 width="260.000000pt" height="260.000000pt" viewBox="0 0 260.000000 260.000000"
 preserveAspectRatio="xMidYMid meet">
<metadata>
Created by potrace 1.14, written by Peter Selinger 2001-2017
</metadata>
<g transform="translate(0.000000,260.000000) scale(0.100000,-0.100000)"
fill="#000000" stroke="none">
<path d="M1190 2564 c-320 -40 -574 -159 -784 -370 -182 -181 -317 -440 -358
-686 -15 -94 -15 -332 0 -426 41 -244 178 -509 357 -687 178 -179 443 -316
687 -357 94 -15 332 -15 426 0 244 41 509 178 687 357 179 178 316 443 357
687 15 94 15 332 0 426 -41 244 -178 509 -357 687 -176 176 -443 316 -676 355
-72 12 -286 20 -339 14z m-76 -1292 c115 -312 211 -573 214 -579 3 -10 -30
-13 -146 -13 l-151 0 -33 108 -34 107 -189 0 -190 0 -34 -107 -35 -108 -148 0
c-81 0 -148 2 -148 4 0 3 94 262 210 576 116 315 210 574 210 576 0 2 60 4
133 4 l132 0 209 -568z m577 551 c1 -10 4 -121 8 -248 l6 -230 54 80 c30 44
106 155 169 248 l114 167 170 0 c103 0 168 -4 166 -10 -1 -5 -86 -118 -188
-250 -102 -133 -187 -246 -188 -251 -2 -5 82 -151 187 -323 105 -173 191 -317
191 -320 0 -3 -73 -6 -163 -6 l-163 0 -123 214 -123 214 -59 -64 -59 -63 0
-151 0 -150 -140 0 -140 0 0 580 0 580 140 0 c126 0 140 -2 141 -17z"/>
<path d="M726 1355 c-26 -82 -54 -170 -62 -194 -7 -25 -14 -46 -14 -48 0 -2
54 -3 120 -3 80 0 120 4 120 11 0 8 -57 195 -114 374 -2 6 -24 -57 -50 -140z"/>
</g>
</svg>
